<svg width="1200" height="900" viewBox="0 0 1200 900" fill="none" xmlns="http://www.w3.org/2000/svg">
  <defs>
    <linearGradient id="bg" x1="0" y1="0" x2="1200" y2="900" gradientUnits="userSpaceOnUse">
      <stop stop-color="#0B1020"/>
      <stop offset="0.5" stop-color="#1C1230"/>
      <stop offset="1" stop-color="#FF6B4A"/>
    </linearGradient>
    <radialGradient id="glow" cx="0" cy="0" r="1" gradientUnits="userSpaceOnUse" gradientTransform="translate(650 350) rotate(90) scale(320 380)">
      <stop stop-color="#FFCC66" stop-opacity="0.9"/>
      <stop offset="1" stop-color="#FFCC66" stop-opacity="0"/>
    </radialGradient>
  </defs>
  <rect width="1200" height="900" rx="48" fill="url(#bg)"/>
  <circle cx="650" cy="340" r="280" fill="url(#glow)"/>
  <path d="M0 680C180 640 280 600 420 620C560 640 640 720 790 720C930 720 1040 660 1200 610V900H0V680Z" fill="#08111F" fill-opacity="0.85"/>
  <rect x="140" y="120" width="920" height="18" rx="9" fill="#91E4FF" fill-opacity="0.5"/>
  <rect x="140" y="160" width="780" height="10" rx="5" fill="#FFFFFF" fill-opacity="0.25"/>
  <circle cx="240" cy="250" r="34" fill="#FFCC66"/>
  <circle cx="910" cy="240" r="18" fill="#FFFFFF" fill-opacity="0.8"/>
  <circle cx="900" cy="300" r="8" fill="#91E4FF"/>
  <text x="140" y="820" fill="#FFF8EE" font-family="Arial, Helvetica, sans-serif" font-size="74" font-weight="700">Sunset Sessions</text>
  <text x="140" y="872" fill="#F4D7C8" font-family="Arial, Helvetica, sans-serif" font-size="28">Lemo Fest live event visual</text>
</svg>

