<svg width="1200" height="900" viewBox="0 0 1200 900" fill="none" xmlns="http://www.w3.org/2000/svg">
  <defs>
    <linearGradient id="bg" x1="0" y1="0" x2="1200" y2="900" gradientUnits="userSpaceOnUse">
      <stop stop-color="#1C1230"/>
      <stop offset="1" stop-color="#050913"/>
    </linearGradient>
  </defs>
  <rect width="1200" height="900" rx="48" fill="url(#bg)"/>
  <circle cx="290" cy="260" r="150" fill="#FF6B4A" fill-opacity="0.22"/>
  <circle cx="830" cy="250" r="180" fill="#91E4FF" fill-opacity="0.18"/>
  <path d="M0 700C160 650 240 640 360 660C480 680 520 740 660 740C800 740 920 660 1040 650C1110 645 1160 650 1200 660V900H0V700Z" fill="#0B1020" fill-opacity="0.9"/>
  <circle cx="210" cy="620" r="46" fill="#FFF8EE" fill-opacity="0.18"/>
  <circle cx="330" cy="590" r="52" fill="#FFF8EE" fill-opacity="0.16"/>
  <circle cx="470" cy="610" r="60" fill="#FFF8EE" fill-opacity="0.14"/>
  <circle cx="610" cy="580" r="52" fill="#FFF8EE" fill-opacity="0.16"/>
  <circle cx="760" cy="620" r="46" fill="#FFF8EE" fill-opacity="0.18"/>
  <text x="140" y="820" fill="#FFF8EE" font-family="Arial, Helvetica, sans-serif" font-size="74" font-weight="700">Crowd Wave</text>
  <text x="140" y="872" fill="#D8E0F5" font-family="Arial, Helvetica, sans-serif" font-size="28">Hands up at the headline set</text>
</svg>

