<svg width="1200" height="900" viewBox="0 0 1200 900" fill="none" xmlns="http://www.w3.org/2000/svg">
  <defs>
    <linearGradient id="bg" x1="120" y1="80" x2="1080" y2="820" gradientUnits="userSpaceOnUse">
      <stop stop-color="#0B1020"/>
      <stop offset="1" stop-color="#1A132C"/>
    </linearGradient>
    <radialGradient id="glow" cx="0" cy="0" r="1" gradientUnits="userSpaceOnUse" gradientTransform="translate(900 220) rotate(90) scale(260 260)">
      <stop stop-color="#FF2C55" stop-opacity="0.42"/>
      <stop offset="1" stop-color="#FF2C55" stop-opacity="0"/>
    </radialGradient>
    <linearGradient id="shirt" x1="360" y1="220" x2="840" y2="720" gradientUnits="userSpaceOnUse">
      <stop stop-color="#25262B"/>
      <stop offset="1" stop-color="#09090B"/>
    </linearGradient>
  </defs>
  <rect width="1200" height="900" rx="48" fill="url(#bg)"/>
  <circle cx="900" cy="220" r="260" fill="url(#glow)"/>
  <circle cx="300" cy="730" r="220" fill="#FF2C55" fill-opacity="0.12"/>
  <circle cx="700" cy="650" r="160" fill="#FFCC66" fill-opacity="0.06"/>
  <path d="M420 220H780L870 290L810 400L744 362V720H456V362L390 400L330 290Z" fill="url(#shirt)" stroke="#F8F4E8" stroke-opacity="0.24" stroke-width="8"/>
  <path d="M520 220C540 288 660 288 680 220" stroke="#0B0B0B" stroke-width="30" stroke-linecap="round"/>
  <path d="M480 420H720" stroke="#FFFFFF" stroke-opacity="0.06" stroke-width="10" stroke-linecap="round"/>
  <rect x="500" y="470" width="200" height="150" rx="28" fill="#0B0B0B" fill-opacity="0.52" stroke="#FFCC66" stroke-opacity="0.24" stroke-width="6"/>
  <path d="M526 516H674" stroke="#FFCC66" stroke-opacity="0.45" stroke-width="8" stroke-linecap="round"/>
  <path d="M548 554H652" stroke="#91E4FF" stroke-opacity="0.32" stroke-width="8" stroke-linecap="round"/>
  <text x="140" y="820" fill="#FFF8EE" font-family="Arial, Helvetica, sans-serif" font-size="70" font-weight="700">Lemo Oversized Tee</text>
  <text x="140" y="872" fill="#D8E0F5" font-family="Arial, Helvetica, sans-serif" font-size="28">Heavyweight cotton / boxy fit</text>
</svg>
