<svg width="1200" height="900" viewBox="0 0 1200 900" fill="none" xmlns="http://www.w3.org/2000/svg">
  <defs>
    <linearGradient id="bg" x1="120" y1="90" x2="1080" y2="840" gradientUnits="userSpaceOnUse">
      <stop stop-color="#0B1020"/>
      <stop offset="1" stop-color="#18102B"/>
    </linearGradient>
    <radialGradient id="glow" cx="0" cy="0" r="1" gradientUnits="userSpaceOnUse" gradientTransform="translate(870 220) rotate(90) scale(230 230)">
      <stop stop-color="#FF6B4A" stop-opacity="0.32"/>
      <stop offset="1" stop-color="#FF6B4A" stop-opacity="0"/>
    </radialGradient>
    <linearGradient id="bag" x1="420" y1="180" x2="780" y2="700" gradientUnits="userSpaceOnUse">
      <stop stop-color="#25262B"/>
      <stop offset="1" stop-color="#09090B"/>
    </linearGradient>
  </defs>
  <rect width="1200" height="900" rx="48" fill="url(#bg)"/>
  <circle cx="870" cy="220" r="230" fill="url(#glow)"/>
  <circle cx="310" cy="720" r="210" fill="#FFCC66" fill-opacity="0.08"/>
  <circle cx="690" cy="640" r="160" fill="#91E4FF" fill-opacity="0.06"/>
  <rect x="420" y="280" width="360" height="420" rx="40" fill="url(#bag)" stroke="#F8F4E8" stroke-opacity="0.22" stroke-width="8"/>
  <path d="M500 280C500 200 540 160 600 160C660 160 700 200 700 280" stroke="#91E4FF" stroke-opacity="0.60" stroke-width="18" stroke-linecap="round" fill="none"/>
  <path d="M470 360H730" stroke="#FFCC66" stroke-opacity="0.42" stroke-width="10" stroke-linecap="round"/>
  <rect x="512" y="420" width="176" height="120" rx="24" fill="#0B0B0B" fill-opacity="0.52" stroke="#F8F4E8" stroke-opacity="0.14" stroke-width="6"/>
  <path d="M540 480H660" stroke="#FFCC66" stroke-opacity="0.48" stroke-width="8" stroke-linecap="round"/>
  <path d="M552 514H648" stroke="#91E4FF" stroke-opacity="0.34" stroke-width="8" stroke-linecap="round"/>
  <text x="140" y="820" fill="#FFF8EE" font-family="Arial, Helvetica, sans-serif" font-size="70" font-weight="700">Festival Tote</text>
  <text x="140" y="872" fill="#D8E0F5" font-family="Arial, Helvetica, sans-serif" font-size="28">Canvas carry / screen-printed logo</text>
</svg>
