<svg width="1200" height="900" viewBox="0 0 1200 900" fill="none" xmlns="http://www.w3.org/2000/svg">
  <defs>
    <linearGradient id="bg" x1="100" y1="80" x2="1100" y2="840" gradientUnits="userSpaceOnUse">
      <stop stop-color="#07111F"/>
      <stop offset="1" stop-color="#10182E"/>
    </linearGradient>
    <radialGradient id="glow" cx="0" cy="0" r="1" gradientUnits="userSpaceOnUse" gradientTransform="translate(860 240) rotate(90) scale(220 220)">
      <stop stop-color="#FFCC66" stop-opacity="0.34"/>
      <stop offset="1" stop-color="#FFCC66" stop-opacity="0"/>
    </radialGradient>
    <linearGradient id="cap" x1="340" y1="300" x2="860" y2="680" gradientUnits="userSpaceOnUse">
      <stop stop-color="#23273A"/>
      <stop offset="1" stop-color="#09090B"/>
    </linearGradient>
  </defs>
  <rect width="1200" height="900" rx="48" fill="url(#bg)"/>
  <circle cx="860" cy="240" r="220" fill="url(#glow)"/>
  <circle cx="320" cy="710" r="210" fill="#FF2C55" fill-opacity="0.10"/>
  <circle cx="680" cy="640" r="160" fill="#91E4FF" fill-opacity="0.06"/>
  <path d="M300 490C330 372 440 290 600 290C760 290 870 372 900 490C840 458 734 434 600 434C466 434 360 458 300 490Z" fill="url(#cap)" stroke="#F8F4E8" stroke-opacity="0.22" stroke-width="8"/>
  <path d="M270 515C360 630 840 630 930 515C904 664 782 706 600 706C418 706 296 664 270 515Z" fill="#11182D" stroke="#F8F4E8" stroke-opacity="0.18" stroke-width="8"/>
  <path d="M490 362H710" stroke="#91E4FF" stroke-opacity="0.34" stroke-width="10" stroke-linecap="round"/>
  <rect x="522" y="374" width="156" height="100" rx="32" fill="#0B0B0B" fill-opacity="0.5" stroke="#FFCC66" stroke-opacity="0.28" stroke-width="6"/>
  <path d="M548 408H652" stroke="#FFCC66" stroke-opacity="0.5" stroke-width="8" stroke-linecap="round"/>
  <text x="140" y="820" fill="#FFF8EE" font-family="Arial, Helvetica, sans-serif" font-size="70" font-weight="700">Field Cap</text>
  <text x="140" y="872" fill="#D8E0F5" font-family="Arial, Helvetica, sans-serif" font-size="28">Six-panel / everyday brim</text>
</svg>
